<svg xmlns="http://www.w3.org/2000/svg" viewBox="0 0 541.982 541.982"><path d="M541.982 285.56c0 9.616-7.867 17.483-17.483 17.483H463.89c-5.828 0-11.364-2.914-14.569-7.867l-38.463-59.443-46.039 245.931c-1.457 8.159-8.742 13.695-16.901 13.695h-.291c-8.159 0-15.444-5.245-17.192-13.404l-68.768-329.851-43.417 225.535c-1.457 7.867-7.867 13.695-15.735 14.278-7.867.583-15.152-4.079-17.775-11.656l-60.317-170.753-29.722 81.88c-2.622 6.993-9.033 11.364-16.318 11.364h-60.9C7.867 302.752 0 294.885 0 285.269s7.867-17.483 17.483-17.483h48.37l42.251-116.555c2.622-6.993 9.033-11.656 16.318-11.656 7.285 0 13.987 4.954 16.318 11.947l55.072 156.184L243.6 60.317c1.457-8.159 8.742-13.695 16.901-13.695 8.159 0 15.444 5.536 17.192 13.404l68.476 328.686 37.88-202.806c1.457-6.993 6.702-12.53 13.695-13.987s14.278 1.748 18.066 7.576l57.112 88.291h51.576c9.616.291 17.484 8.158 17.484 17.774z"/></svg>