<svg viewBox="0 0 496 496.01" xmlns="http://www.w3.org/2000/svg"><path d="M107.582 336.852l-27.578-13.786v-27.054c0-4.426-3.582-8-8-8h-8v-56c0-42.305 13.953-82.074 40.351-114.992l-12.484-10.016C63.59 142.289 48.004 186.69 48.004 232.012v56h-16v-56c0-54.504 20.36-106.563 57.336-146.57L77.59 74.585c-39.711 42.969-61.586 98.879-61.586 157.426v57.468c-9.285 3.313-16 12.114-16 22.532v160c0 13.23 10.77 24 24 24h48c4.418 0 8-3.578 8-8v-27.059l27.578-13.789a7.993 7.993 0 0 0 4.422-7.152v-96c0-3.035-1.711-5.801-4.422-7.16zm-91.578 18.472l1.379 1.375c9.43 9.438 14.62 21.977 14.62 35.313 0 13.336-5.19 25.87-14.62 35.312l-1.38 1.375zm48 124.688h-40c-4.406 0-8-3.586-8-8v-20.688l12.687-12.691c12.457-12.453 19.313-29.016 19.313-46.621 0-17.61-6.856-34.168-19.313-46.625l-12.687-12.688v-20.687c0-4.418 3.594-8 8-8h40zm32-44.946l-16 8V340.953l16 8zm0 0M480.004 289.48v-57.468c0-47.633-14.328-93.403-41.43-132.352l-13.137 9.14c25.231 36.259 38.567 78.868 38.567 123.212v56h-16v-56c0-31.856-7.672-63.555-22.2-91.672l-14.214 7.344c13.55 26.222 20.414 54.59 20.414 84.328v56h-8c-4.414 0-8 3.574-8 8v27.054L388.43 336.86a7.988 7.988 0 0 0-4.426 7.153v96a8.017 8.017 0 0 0 4.426 7.16l27.574 13.781v27.059a8 8 0 0 0 8 8h48c13.234 0 24-10.77 24-24v-160c0-10.418-6.711-19.219-16-22.532zm-80 145.586v-86.113l16-8v102.113zm72 44.946h-40v-176h40c4.41 0 8 3.582 8 8v20.687l-12.688 12.688c-12.457 12.457-19.312 29.015-19.312 46.625 0 17.605 6.855 34.168 19.312 46.62l12.688 12.692v20.688c0 4.414-3.59 8-8 8zm8-124.688V428.7l-1.375-1.375c-9.434-9.441-14.625-21.976-14.625-35.312 0-13.336 5.191-25.875 14.625-35.313zm0 0M248.004 16.012c44.434 0 87.113 13.383 123.426 38.71l9.16-13.128C341.574 14.394 295.727.012 248.004.012c-22.55 0-44.848 3.23-66.277 9.597l4.558 15.336c19.945-5.925 40.711-8.933 61.719-8.933zm0 0"/><path d="M198.012 38.305l3.984 15.504c14.953-3.848 30.434-5.797 46.008-5.797 42.305 0 82.066 13.949 115 40.351l10.008-12.488c-35.285-28.29-79.68-43.863-125.008-43.863-16.918 0-33.742 2.117-49.992 6.293zm0 0M328.004 160.012h-160c-13.23 0-24 10.765-24 24v288c0 13.23 10.77 24 24 24h160c13.234 0 24-10.77 24-24v-288c0-13.235-10.766-24-24-24zm8 312c0 4.414-3.59 8-8 8h-160c-4.406 0-8-3.586-8-8v-288c0-4.418 3.594-8 8-8h160c4.41 0 8 3.582 8 8zm0 0"/><path d="M312.004 192.012h-128c-4.414 0-8 3.574-8 8v224a8 8 0 0 0 8 8h128c4.418 0 8-3.578 8-8v-224c0-4.426-3.582-8-8-8zm-8 224h-112v-208h112zm0 0M232.004 448.012h32v16h-32zm0 0"/><path d="M228.941 351.402a8.001 8.001 0 0 0 8.719-1.734l32-32a7.99 7.99 0 0 0 0-11.313l-32-32c-2.297-2.289-5.726-2.992-8.719-1.738a8.009 8.009 0 0 0-4.937 7.395v64c0 3.23 1.953 6.16 4.937 7.39zm11.063-52.078l12.687 12.688-12.687 12.687zm0 0M408.004 120.012V59.324l18.344 18.344 11.312-11.313-32-32a7.988 7.988 0 0 0-8.719-1.738 8.009 8.009 0 0 0-4.937 7.395V97.48c-2.512-.894-5.184-1.468-8-1.468-13.23 0-24 10.765-24 24 0 13.23 10.77 24 24 24 13.234 0 24-10.77 24-24zm-32 0c0-4.418 3.594-8 8-8 4.41 0 8 3.582 8 8 0 4.414-3.59 8-8 8-4.406 0-8-3.586-8-8zm0 0M152.004 88.012V27.324l18.344 18.344 11.312-11.313-32-32C147.363.06 143.934-.637 140.941.617a8.009 8.009 0 0 0-4.937 7.395V65.48c-2.512-.894-5.184-1.468-8-1.468-13.23 0-24 10.765-24 24 0 13.23 10.77 24 24 24 13.234 0 24-10.77 24-24zm-24 8c-4.406 0-8-3.586-8-8 0-4.418 3.594-8 8-8 4.41 0 8 3.582 8 8 0 4.414-3.59 8-8 8zm0 0"/></svg>
