<svg xmlns="http://www.w3.org/2000/svg" viewBox="0 0 473.733 473.733"><path d="M231.2 336.033c-9.35 0-17 7.65-17 17v11.333c0 9.35 7.65 17 17 17s17-7.65 17-17v-11.333c0-9.35-7.65-17-17-17z"/><path d="M163.2 194.367c.283 0 .283 0 0 0 9.35 0 17-7.083 17-16.433 0 0 .283-13.6 7.083-26.917 8.5-17 23.517-25.5 45.617-25.5 20.683 0 35.983 5.667 44.483 16.717 7.083 9.067 9.067 21.533 5.667 35.133-4.25 16.717-18.7 31.167-32.583 45.333-17 17.567-34.85 35.417-34.85 59.5 0 9.35 7.65 17 17 17s17-7.65 17-17c0-10.2 12.183-22.667 25.217-35.7 16.15-16.433 34.567-35.133 41.083-60.633 6.233-23.517 1.983-47.033-11.617-64.317-10.483-13.6-31.45-30.033-71.117-30.033-44.483 0-65.733 23.8-75.933 44.2-10.2 20.4-10.767 39.95-10.767 42.217 0 9.066 7.367 16.433 16.717 16.433z"/></svg>
