<svg xmlns="http://www.w3.org/2000/svg" viewBox="0 0 300.095 300.095"><path d="M23.491 144.032c0-28.762 23.399-52.155 52.161-52.155h185.706l-46.874 46.874 14.31 14.305 71.301-71.295L228.8 10.47l-14.3 14.31 46.863 46.868H75.657c-39.912 0-72.389 32.477-72.389 72.389v7.419h20.228v-7.424h-.005z"/><path d="M276.604 156.058c0 28.762-23.404 52.155-52.166 52.155H38.726l46.879-46.874L71.29 147.04 0 218.335l71.295 71.29 14.299-14.31-46.874-46.868h185.711c39.917 0 72.394-32.471 72.394-72.388v-7.419h-20.228v7.419h.007z" /></svg>
