<?xml version="1.0" standalone="no"?>
<!DOCTYPE svg PUBLIC "-//W3C//DTD SVG 20010904//EN"
 "http://www.w3.org/TR/2001/REC-SVG-20010904/DTD/svg10.dtd">
<svg version="1.0" xmlns="http://www.w3.org/2000/svg"
 width="512.000000pt" height="512.000000pt" viewBox="0 0 512.000000 512.000000"
 preserveAspectRatio="xMidYMid meet">
<metadata>
Created by potrace 1.11, written by Peter Selinger 2001-2013
</metadata>
<g transform="translate(0.000000,512.000000) scale(0.100000,-0.100000)"
fill="#000000" stroke="none">
<path d="M240 4987 c-47 -15 -103 -74 -118 -123 -18 -60 -18 -4548 0 -4608 16
-52 72 -108 124 -124 60 -18 4568 -18 4628 0 52 16 108 72 124 124 18 60 18
4548 0 4608 -16 52 -72 108 -124 124 -56 16 -4581 16 -4634 -1z m3268 -2144
l-3 -978 -27 -51 c-33 -63 -130 -154 -200 -188 -63 -30 -158 -56 -209 -56 -48
0 -121 23 -159 50 -73 52 -90 163 -40 263 35 69 134 159 227 204 75 37 82 38
183 38 82 0 112 -4 138 -18 l32 -18 0 755 0 754 -67 -13 c-38 -7 -353 -63
-700 -126 l-633 -113 -2 -875 -3 -876 -24 -45 c-57 -107 -208 -209 -344 -233
-126 -21 -235 22 -278 110 -62 128 40 297 237 395 86 42 89 43 188 43 76 0
109 -5 133 -18 18 -9 34 -17 38 -17 3 0 5 387 5 860 l0 859 38 7 c124 24 1449
262 1460 263 10 1 12 -192 10 -976z"/>
</g>
</svg>
