<svg viewBox="0 0 512 512">
        <path d="M443.5 273.1c0 25.1-20.4 45.5-45.5 45.5H271.5V162.3c4.8-1.8 9.9-3.1 15.1-3.9 4.1-0.6 8.3-1 12.5-1 42.3 0 77 32.7 80.3 74.1 5.7-2.5 11.9-4 18.6-4C423.1 227.6 443.5 248 443.5 273.1zM224.2 193.2v125.4h15.1v-134.5c-3.4 3.7-6.4 7.8-9 12.1C228.4 195 226.3 194.1 224.2 193.2zM247.6 318.6h15.1v-152.4c-5.4 2.7-10.5 6.1-15.1 9.9V318.6zM151.8 208.9v109.7h15.1V196.9C161.3 200.2 156.2 204.2 151.8 208.9zM106.5 231.6v86.5c1.9 0.2 3.7 0.4 5.7 0.4h7.9v-86.6c-2.6-0.5-5.2-0.7-7.9-0.7C110.3 231.3 108.4 231.4 106.5 231.6zM86.5 310.2c3.4 2.5 7.2 4.5 11.3 5.9v-82.4c-4.1 1.4-7.9 3.4-11.3 5.9V310.2zM128.4 234.4v84.2h15.1v-98.7c-3.4 5.6-6 11.8-7.5 18.4C133.6 236.8 131.1 235.5 128.4 234.4zM175.9 318.6h15.1V188.8c-5.3 0.7-10.3 2-15.1 3.8V318.6zM200.1 318.6h15.1v-128.3c-4.8-1.2-9.9-1.9-15.1-1.9V318.6L200.1 318.6zM79.1 303.4v-56.9c-6.6 7.6-10.6 17.6-10.6 28.5C68.5 285.8 72.5 295.7 79.1 303.4z"></path>
      </svg>
